# xmcd CD database file
#
# Track frame offsets:
#	150
#	13627
#	30270
#	45760
#	60100
#	75745
#	95222
#	113585
#	131800
#	148495
#	164667
#	178415
#	202662
#	219510
#	238225
#	252927
#
# Disc length: 3622 seconds
#
# Revision: 0
# Processed by: cddbd v1.5.2PL0 Copyright (c) Steve Scherf et al.
# Submitted via: CDex 1.51
#
DISCID=db0e2410
DTITLE=Eric Clapton - All Inspiration - CD1
DYEAR=1995
DGENRE=Blues
TTITLE0=Motherless Child
TTITLE1=Malted Milk
TTITLE2=How Long Blues
TTITLE3=Kidman Blues
TTITLE4=The Call Of Gin
TTITLE5=The Fortyfour
TTITLE6=Blues All Day Long
TTITLE7=Standin' Round Crying
TTITLE8=Hoochie Coochie Man
TTITLE9=It Hurts Me Too
TTITLE10=Blues Before Sunrise
TTITLE11=Third Degree
TTITLE12=So Long
TTITLE13=Sinner's Prayer
TTITLE14=I Can't Judge Nobody
TTITLE15=Someday After A While
EXTD=YEAR: 1995
EXTT0=
EXTT1=
EXTT2=
EXTT3=
EXTT4=
EXTT5=
EXTT6=
EXTT7=
EXTT8=
EXTT9=
EXTT10=
EXTT11=
EXTT12=
EXTT13=
EXTT14=
EXTT15=
PLAYORDER=
